<svg width="1280" height="420" viewBox="0 0 1280 420" fill="none" xmlns="http://www.w3.org/2000/svg" role="img" aria-label="Model Route Lint cover">

  <defs>
    <linearGradient id="g" x1="0" x2="1" y1="0" y2="1">
      <stop offset="0" stop-color="#a3e635" stop-opacity=".34"/>
      <stop offset=".54" stop-color="#161616" stop-opacity="0"/>
      <stop offset="1" stop-color="#38bdf8" stop-opacity=".30"/>
    </linearGradient>
    <filter id="grain" x="-20%" y="-20%" width="140%" height="140%">
      <feTurbulence type="fractalNoise" baseFrequency=".85" numOctaves="2" seed="26" result="noise"/>
      <feColorMatrix type="saturate" values="0"/>
      <feComponentTransfer><feFuncA type="table" tableValues="0 .10"/></feComponentTransfer>
      <feBlend mode="soft-light" in2="SourceGraphic"/>
    </filter>
  </defs>
  <rect width="1280" height="420" rx="30" fill="#161616"/>
  <rect width="1280" height="420" rx="30" fill="url(#g)" filter="url(#grain)"/>

  <rect x="82" y="74" width="300" height="272" rx="30" fill="#a3e635" opacity=".18"/>
  <path d="M132 142h168M132 202h108M132 262h202" stroke="#fafafa" stroke-width="15" stroke-linecap="round"/>
  <text x="446" y="184" fill="#fafafa" font-family="Sora, ui-sans-serif, system-ui" font-size="60" font-weight="850">Model Route Lint</text>
  <text x="450" y="242" fill="#d4d4d4" font-family="Sora, ui-sans-serif, system-ui" font-size="23">Lint model routing configs for missing fallbacks,...</text>
  <rect x="450" y="278" width="360" height="44" rx="22" fill="#38bdf8" opacity=".18"/>
  <text x="470" y="307" fill="#fafafa" font-family="ui-monospace, SFMono-Regular, Menlo, monospace" font-size="16" font-weight="800">MODEL EVALUATION</text>
  <rect x="846" y="122" width="160" height="28" rx="8" fill="#a3e635" opacity=".85"/>
  <text x="862" y="141" fill="#fafafa" font-family="ui-monospace, SFMono-Regular, Menlo, monospace" font-size="13">missing-fallback</text>
  <rect x="846" y="176" width="216" height="28" rx="8" fill="#38bdf8" opacity=".85"/>
  <text x="862" y="195" fill="#fafafa" font-family="ui-monospace, SFMono-Regular, Menlo, monospace" font-size="13">missing-budget</text>
  <rect x="846" y="230" width="270" height="28" rx="8" fill="#a3e635" opacity=".85"/>
  <text x="862" y="249" fill="#fafafa" font-family="ui-monospace, SFMono-Regular, Menlo, monospace" font-size="13">missing-safety-tier</text>
</svg>
